# Blender v2.80 (sub 75) OBJ File: '1_Maze.blend'
# www.blender.org
mtllib Hedge_Angle.mtl
o Hedge_Angle_Cube.011
v 1.103730 -1.434273 1.507253
v -1.610982 -1.434273 -1.000000
v 1.103730 -1.434273 0.492748
v -0.596478 -1.434273 -1.000000
v 1.103730 0.565727 1.404105
v 1.103730 0.362380 1.507253
v 1.103730 0.506168 1.477042
v -1.610982 0.362380 -1.000000
v -1.507834 0.565727 -1.000000
v -1.580771 0.506168 -1.000000
v 1.103730 0.362380 0.492748
v 1.103730 0.565727 0.595896
v 1.103730 0.506168 0.522959
v -0.699626 0.565727 -1.000000
v -0.596478 0.362380 -1.000000
v -0.626689 0.506168 -1.000000
vt 0.650418 0.500000
vt 0.849582 0.500000
vt 0.849582 0.750000
vt 0.650418 0.750000
vt 0.375000 0.500000
vt 0.599582 0.500000
vt 0.599582 0.750000
vt 0.375000 0.750000
vt 0.375000 0.000000
vt 0.599582 0.000000
vt 0.599582 0.250000
vt 0.375000 0.250000
vt 0.125000 0.500000
vt 0.125000 0.750000
vt 0.617555 0.257445
vt 0.625000 0.275418
vt 0.625000 0.474582
vt 0.622518 0.497518
vt 0.875000 0.500000
vt 0.875000 0.750000
vt 0.625000 0.000000
vt 0.625000 0.250000
vt 0.622518 0.752482
vt 0.625000 0.775418
vt 0.625000 0.974582
vt 0.617555 0.992555
vt 0.599582 1.000000
vt 0.375000 1.000000
vn 0.0000 1.0000 0.0000
vn 0.6598 0.0000 -0.7515
vn -0.6785 0.0000 0.7346
vn 0.0000 -1.0000 0.0000
vn 0.0000 0.0000 -1.0000
vn -0.5125 0.6543 0.5561
vn -0.6710 0.1468 0.7268
vn 0.5007 0.6539 -0.5673
vn 0.6531 0.1467 -0.7429
vn 1.0000 0.0000 0.0000
usemtl Hedge_Green
s off
f 14/1/1 9/2/1 5/3/1 12/4/1
f 4/5/2 15/6/2 11/7/2 3/8/2
f 1/9/3 6/10/3 8/11/3 2/12/3
f 2/13/4 4/5/4 3/8/4 1/14/4
f 2/12/5 8/11/5 10/15/5 9/16/5 14/17/5 16/18/5 15/6/5 4/5/5
f 5/3/6 9/2/6 10/19/6 7/20/6
f 7/21/7 10/22/7 8/11/7 6/10/7
f 14/1/8 12/4/8 13/23/8 16/18/8
f 16/18/9 13/23/9 11/7/9 15/6/9
f 3/8/10 11/7/10 13/23/10 12/24/10 5/25/10 7/26/10 6/27/10 1/28/10
