# Blender v2.80 (sub 75) OBJ File: '1_Maze.blend'
# www.blender.org
mtllib Hedge_Turn_Wide.mtl
o Hedge_Turn_Wide_Cube.012
v 1.165323 -1.434273 -1.482753
v -1.341929 -1.434274 1.231960
v 0.150818 -1.434273 -1.482753
v -1.341929 -1.434274 0.217455
v 1.062175 0.565726 -1.482753
v 1.165323 0.362380 -1.482753
v 1.135112 0.506168 -1.482753
v -1.341929 0.362380 1.231960
v -1.341929 0.565726 1.128812
v -1.341929 0.506168 1.201748
v 0.150818 0.362380 -1.482753
v 0.253966 0.565726 -1.482753
v 0.181030 0.506168 -1.482753
v -1.341929 0.565726 0.320603
v -1.341929 0.362380 0.217455
v -1.341929 0.506168 0.247666
v 1.216897 -1.434273 1.283533
v 0.150818 -1.434273 0.232561
v 1.165323 0.565726 1.231959
v 1.201792 0.506168 1.268427
v 1.216897 0.362380 1.283533
v 0.202392 0.565726 0.284135
v 0.165924 0.506168 0.247666
v 0.150818 0.362380 0.232561
vt 0.650418 0.625000
vt 0.849582 0.625000
vt 0.849582 0.750000
vt 0.650418 0.750000
vt 0.375000 0.625000
vt 0.599582 0.625000
vt 0.599582 0.750000
vt 0.375000 0.750000
vt 0.375000 0.125000
vt 0.599582 0.125000
vt 0.599582 0.250000
vt 0.375000 0.250000
vt 0.125000 0.625000
vt 0.125000 0.750000
vt 0.617555 0.257445
vt 0.625000 0.275418
vt 0.625000 0.474582
vt 0.622518 0.497518
vt 0.599582 0.500000
vt 0.375000 0.500000
vt 0.849582 0.500000
vt 0.875000 0.500000
vt 0.875000 0.625000
vt 0.625000 0.125000
vt 0.625000 0.250000
vt 0.622518 0.752482
vt 0.622518 0.625000
vt 0.625000 0.775418
vt 0.625000 0.974582
vt 0.617555 0.992555
vt 0.599582 1.000000
vt 0.375000 1.000000
vt 0.650418 0.500000
vt 0.625000 0.000000
vt 0.599582 0.000000
vt 0.875000 0.750000
vt 0.125000 0.500000
vt 0.375000 0.000000
vn 0.0000 1.0000 0.0000
vn -1.0000 0.0000 0.0000
vn -0.0202 0.0000 0.9998
vn 0.0000 -1.0000 -0.0000
vn -0.0249 0.6721 0.7401
vn -0.0229 0.1544 0.9877
vn -0.7343 0.6787 -0.0140
vn -0.9878 0.1559 -0.0043
vn -0.0000 0.0000 -1.0000
vn 0.0050 0.1554 -0.9878
vn -0.0088 0.6779 -0.7351
vn 0.9878 0.1545 -0.0212
vn 0.7398 0.6724 -0.0230
vn 0.9998 0.0000 -0.0186
vn 0.0101 0.0000 -0.9999
usemtl Hedge_Green
s off
f 22/1/1 19/2/1 5/3/1 12/4/1
f 18/5/2 24/6/2 11/7/2 3/8/2
f 17/9/3 21/10/3 8/11/3 2/12/3
f 17/13/4 18/5/4 3/8/4 1/14/4
f 2/12/2 8/11/2 10/15/2 9/16/2 14/17/2 16/18/2 15/19/2 4/20/2
f 19/2/5 9/21/5 10/22/5 20/23/5
f 20/24/6 10/25/6 8/11/6 21/10/6
f 22/1/7 12/4/7 13/26/7 23/27/7
f 23/27/8 13/26/8 11/7/8 24/6/8
f 3/8/9 11/7/9 13/26/9 12/28/9 5/29/9 7/30/9 6/31/9 1/32/9
f 16/18/10 23/27/10 24/6/10 15/19/10
f 14/33/11 22/1/11 23/27/11 16/18/11
f 7/34/12 20/24/12 21/10/12 6/35/12
f 5/3/13 19/2/13 20/23/13 7/36/13
f 2/37/4 4/20/4 18/5/4 17/13/4
f 1/38/14 6/35/14 21/10/14 17/9/14
f 4/20/15 15/19/15 24/6/15 18/5/15
f 14/33/1 9/21/1 19/2/1 22/1/1
