# Blender v2.80 (sub 75) OBJ File: '1_Maze.blend'
# www.blender.org
mtllib Hedge_Door_Small.mtl
o Hedge_Straight_Short_Door_Cube.015
v 1.000000 -0.579184 0.507253
v -1.000000 -0.579184 0.507253
v 1.000000 -0.579184 -0.507252
v -1.000000 -0.579184 -0.507251
v 1.000000 0.296052 0.404105
v 1.000000 0.092705 0.507253
v 1.000000 0.236493 0.477042
v -1.000000 0.092705 0.507253
v -1.000000 0.296052 0.404105
v -1.000000 0.236493 0.477042
v 1.000000 0.092705 -0.507252
v 1.000000 0.296052 -0.404103
v 1.000000 0.236493 -0.477040
v -1.000000 0.296052 -0.404103
v -1.000000 0.092705 -0.507251
v -1.000000 0.236493 -0.477040
v -0.413036 -0.579184 0.471564
v -0.483394 -0.579184 0.507253
v 0.483395 -0.579184 0.507253
v 0.413037 -0.579184 0.471564
v 0.413037 -0.579184 -0.471562
v 0.483395 -0.579184 -0.507251
v -0.483394 -0.579184 -0.507251
v -0.413036 -0.579184 -0.471562
v 0.413037 0.225694 0.397006
v 0.483395 0.296052 0.404105
v -0.413036 0.225694 0.397006
v -0.483394 0.296052 0.404105
v -0.413036 0.182643 0.449726
v -0.483394 0.236493 0.477042
v 0.413037 0.182643 0.449726
v 0.483395 0.236493 0.477042
v -0.413036 0.078710 0.471564
v -0.483394 0.092705 0.507253
v 0.413037 0.078710 0.471564
v 0.483395 0.092705 0.507253
v -0.413036 0.225694 -0.397004
v -0.483394 0.296052 -0.404103
v 0.413037 0.225694 -0.397004
v 0.483395 0.296052 -0.404103
v 0.413037 0.182643 -0.449724
v 0.483395 0.236493 -0.477040
v -0.413036 0.182643 -0.449724
v -0.483394 0.236493 -0.477040
v 0.413037 0.078710 -0.471562
v 0.483395 0.092705 -0.507251
v -0.413036 0.078710 -0.471562
v -0.483394 0.092705 -0.507251
vt 0.650418 0.500000
vt 0.849582 0.500000
vt 0.849582 0.573344
vt 0.650418 0.573344
vt 0.375000 0.500000
vt 0.599582 0.500000
vt 0.599582 0.573344
vt 0.375000 0.573344
vt 0.375000 0.000000
vt 0.599582 0.000000
vt 0.599582 0.073344
vt 0.375000 0.073344
vt 0.587517 0.664762
vt 0.366205 0.666667
vt 0.133795 0.666667
vt 0.587216 0.184837
vt 0.646893 0.237848
vt 0.754244 0.523873
vt 0.628110 0.664507
vt 0.611102 0.665226
vt 0.375000 0.250000
vt 0.599582 0.250000
vt 0.617555 0.257445
vt 0.625000 0.275418
vt 0.625000 0.474582
vt 0.622518 0.497518
vt 0.625000 0.176656
vt 0.625000 0.250000
vt 0.599582 0.176656
vt 0.625000 0.000000
vt 0.625000 0.073344
vt 0.622518 0.677681
vt 0.622518 0.752482
vt 0.599582 0.750000
vt 0.599582 0.676656
vt 0.622518 0.572319
vt 0.375000 0.750000
vt 0.625000 0.775418
vt 0.625000 0.974582
vt 0.617555 0.992555
vt 0.599582 1.000000
vt 0.375000 1.000000
vt 0.650418 0.676656
vt 0.650418 0.750000
vt 0.849582 0.676656
vt 0.849582 0.750000
vt 0.587517 0.581728
vt 0.611102 0.581549
vt 0.628110 0.581545
vt 0.754244 0.481337
vt 0.646893 0.277034
vt 0.587216 0.239168
vt 0.133795 0.583333
vt 0.366205 0.583333
vt 0.125000 0.676656
vt 0.375000 0.676656
vt 0.125000 0.750000
vt 0.875000 0.676656
vt 0.875000 0.750000
vt 0.375000 0.176656
vt 0.875000 0.500000
vt 0.875000 0.573344
vt 0.625000 0.083333
vt 0.849582 0.666667
vt 0.870240 0.583333
vt 0.851867 0.583333
vt 0.125000 0.666667
vt 0.599582 0.083333
vt 0.375000 0.166667
vt 0.594904 0.166667
vt 0.125000 0.500000
vt 0.125000 0.573344
vn 0.0000 1.0000 0.0000
vn -0.0000 0.0000 -1.0000
vn 0.0000 0.0000 1.0000
vn -1.0000 0.0000 0.0000
vn 0.0000 0.2056 0.9786
vn -0.0000 0.2056 -0.9786
vn 1.0000 -0.0000 -0.0000
vn -0.0000 0.7746 -0.6325
vn 0.0000 -1.0000 0.0000
vn 0.0000 0.7746 0.6325
vn 0.4733 0.1811 -0.8621
vn -0.4733 0.1811 -0.8621
vn 0.6425 0.5936 -0.4847
vn -0.6425 0.5936 -0.4847
vn -0.4733 0.1811 0.8621
vn 0.4733 0.1811 0.8621
vn -0.6425 0.5936 0.4847
vn 0.6425 0.5936 0.4847
vn -0.4524 0.0000 0.8918
vn 0.4524 0.0000 0.8918
vn 0.4524 0.0000 -0.8918
vn -0.4524 0.0000 -0.8918
vn 0.7071 0.7071 -0.0000
vn -0.7071 0.7071 0.0000
usemtl Hedge_Green
s off
f 14/1/1 9/2/1 28/3/1 38/4/1
f 4/5/2 15/6/2 48/7/2 23/8/2
f 1/9/3 6/10/3 36/11/3 19/12/3
f 45/13/4 21/14/4 20/15/4 35/16/4 31/17/4 25/18/4 39/19/4 41/20/4
f 2/21/4 8/22/4 10/23/4 9/24/4 14/25/4 16/26/4 15/6/4 4/5/4
f 30/27/5 10/28/5 8/22/5 34/29/5
f 7/30/5 32/31/5 36/11/5 6/10/5
f 42/32/6 13/33/6 11/34/6 46/35/6
f 16/26/6 44/36/6 48/7/6 15/6/6
f 3/37/7 11/34/7 13/33/7 12/38/7 5/39/7 7/40/7 6/41/7 1/42/7
f 40/43/8 12/44/8 13/33/8 42/32/8
f 14/1/8 38/4/8 44/36/8 16/26/8
f 40/43/1 26/45/1 5/46/1 12/44/1
f 47/47/7 43/48/7 37/49/7 27/50/7 29/51/7 33/52/7 17/53/7 24/54/7
f 19/55/9 20/15/9 21/14/9 22/56/9 3/37/9 1/57/9
f 5/46/10 26/45/10 32/58/10 7/59/10
f 18/60/3 34/29/3 8/22/3 2/21/3
f 28/3/10 9/2/10 10/61/10 30/62/10
f 22/56/2 46/35/2 11/34/2 3/37/2
f 43/48/11 47/47/11 48/7/11 44/36/11
f 42/32/12 46/35/12 45/13/12 41/20/12
f 37/49/13 43/48/13 44/36/13 38/4/13
f 40/43/14 42/32/14 41/20/14 39/19/14
f 31/17/15 35/16/15 36/11/15 32/31/15
f 30/27/16 34/29/16 33/52/16 29/51/16
f 25/18/17 31/17/17 32/63/17 26/64/17
f 28/3/18 30/62/18 29/65/18 27/66/18
f 35/16/19 20/15/19 19/67/19 36/68/19
f 34/29/20 18/60/20 17/69/20 33/70/20
f 47/47/21 24/54/21 23/8/21 48/7/21
f 46/35/22 22/56/22 21/14/22 45/13/22
f 27/50/23 37/49/23 38/4/23 28/3/23
f 26/45/24 40/43/24 39/19/24 25/18/24
f 2/71/9 4/5/9 23/8/9 24/54/9 17/53/9 18/72/9
