# Blender v2.80 (sub 75) OBJ File: '1_Maze.blend'
# www.blender.org
mtllib Hedge_Straight_Short.mtl
o Hedge_Straight_Short_Cube.014
v 1.000000 -0.590700 0.507252
v -1.000000 -0.590700 0.507253
v 1.000000 -0.590700 -0.507253
v -1.000000 -0.590700 -0.507252
v 1.000000 0.284535 0.404104
v 1.000000 0.081189 0.507252
v 1.000000 0.224976 0.477041
v -1.000000 0.081189 0.507253
v -1.000000 0.284535 0.404104
v -1.000000 0.224976 0.477041
v 1.000000 0.081189 -0.507253
v 1.000000 0.284535 -0.404104
v 1.000000 0.224976 -0.477041
v -1.000000 0.284535 -0.404104
v -1.000000 0.081189 -0.507252
v -1.000000 0.224976 -0.477041
vt 0.650418 0.500000
vt 0.849582 0.500000
vt 0.849582 0.750000
vt 0.650418 0.750000
vt 0.375000 0.500000
vt 0.599582 0.500000
vt 0.599582 0.750000
vt 0.375000 0.750000
vt 0.375000 0.000000
vt 0.599582 0.000000
vt 0.599582 0.250000
vt 0.375000 0.250000
vt 0.125000 0.500000
vt 0.125000 0.750000
vt 0.617555 0.257445
vt 0.625000 0.275418
vt 0.625000 0.474582
vt 0.622518 0.497518
vt 0.875000 0.500000
vt 0.875000 0.750000
vt 0.625000 0.000000
vt 0.625000 0.250000
vt 0.622518 0.752482
vt 0.625000 0.775418
vt 0.625000 0.974582
vt 0.617555 0.992555
vt 0.599582 1.000000
vt 0.375000 1.000000
vn 0.0000 1.0000 -0.0000
vn -0.0000 0.0000 -1.0000
vn 0.0000 0.0000 1.0000
vn 0.0000 -1.0000 -0.0000
vn -1.0000 0.0000 0.0000
vn 0.0000 0.7746 0.6325
vn 0.0000 0.2056 0.9786
vn -0.0000 0.7746 -0.6325
vn -0.0000 0.2056 -0.9786
vn 1.0000 -0.0000 -0.0000
usemtl Hedge_Green
s off
f 14/1/1 9/2/1 5/3/1 12/4/1
f 4/5/2 15/6/2 11/7/2 3/8/2
f 1/9/3 6/10/3 8/11/3 2/12/3
f 2/13/4 4/5/4 3/8/4 1/14/4
f 2/12/5 8/11/5 10/15/5 9/16/5 14/17/5 16/18/5 15/6/5 4/5/5
f 5/3/6 9/2/6 10/19/6 7/20/6
f 7/21/7 10/22/7 8/11/7 6/10/7
f 14/1/8 12/4/8 13/23/8 16/18/8
f 16/18/9 13/23/9 11/7/9 15/6/9
f 3/8/10 11/7/10 13/23/10 12/24/10 5/25/10 7/26/10 6/27/10 1/28/10
