# Blender v2.80 (sub 75) OBJ File: '1_Maze.blend'
# www.blender.org
mtllib Hedge_DoubleInset.mtl
o Hedge_Inset_Double_Cube.009
v 1.000001 -1.229536 0.507252
v -0.999999 -1.229536 0.507252
v 1.000000 -1.229536 -0.507253
v -1.000000 -1.229536 -0.507252
v 1.000001 0.770464 0.404104
v 1.000001 0.567117 0.507252
v 1.000001 0.710905 0.477041
v -0.999999 0.567117 0.507252
v -0.999999 0.770464 0.404104
v -0.999999 0.710905 0.477041
v 1.000000 0.567117 -0.507253
v 1.000000 0.770464 -0.404105
v 1.000000 0.710905 -0.477041
v -1.000000 0.770464 -0.404104
v -1.000000 0.567117 -0.507252
v -1.000000 0.710905 -0.477041
v -0.187961 -1.229536 0.507252
v 0.187962 -1.229536 0.507252
v 0.187962 -1.229536 -0.507253
v -0.187961 -1.229536 -0.507252
v 0.187962 0.770464 0.404104
v -0.187961 0.770464 0.404104
v -0.187961 0.710905 0.477041
v 0.187962 0.710905 0.477041
v -0.187961 0.567117 0.507252
v 0.187962 0.567117 0.507252
v -0.187961 0.770464 -0.404104
v 0.187962 0.770464 -0.404104
v 0.187962 0.710905 -0.477041
v -0.187961 0.710905 -0.477041
v 0.187962 0.567117 -0.507253
v -0.187961 0.567117 -0.507252
v 1.000000 0.045868 -0.507253
v -1.000000 0.045868 -0.507252
v -0.187961 0.045868 -0.507252
v 0.187962 0.045868 -0.507253
v 1.000001 0.045868 0.507252
v -0.999999 0.045868 0.507252
v 0.187962 0.045868 0.507252
v -0.187961 0.045868 0.507252
v -1.000000 -0.591834 -0.507252
v -0.187961 -0.591834 -0.507252
v 0.187962 -0.591834 -0.507253
v 1.000000 -0.591834 -0.507253
v 1.000001 -0.591834 0.507252
v -0.999999 -0.591834 0.507252
v 0.187962 -0.591834 0.507252
v -0.187961 -0.591834 0.507252
v -0.187961 0.045868 -0.389492
v 0.187962 0.045868 -0.389492
v 0.187962 0.045868 0.389492
v -0.187961 0.045868 0.389492
v -0.187961 -0.591834 -0.389492
v 0.187962 -0.591834 -0.389492
v 0.187962 -0.591834 0.389492
v -0.187961 -0.591834 0.389492
vt 0.650418 0.666667
vt 0.849582 0.666667
vt 0.849582 0.750000
vt 0.650418 0.750000
vt 0.534425 0.666667
vt 0.599582 0.666667
vt 0.599582 0.750000
vt 0.534425 0.750000
vt 0.534425 0.166667
vt 0.599582 0.166667
vt 0.599582 0.250000
vt 0.534425 0.250000
vt 0.125000 0.666667
vt 0.375000 0.666667
vt 0.375000 0.750000
vt 0.125000 0.750000
vt 0.375000 0.250000
vt 0.454713 0.250000
vt 0.617555 0.257445
vt 0.625000 0.275418
vt 0.625000 0.474582
vt 0.622518 0.497518
vt 0.599582 0.500000
vt 0.534425 0.500000
vt 0.454713 0.500000
vt 0.375000 0.500000
vt 0.849582 0.583333
vt 0.849582 0.500000
vt 0.875000 0.500000
vt 0.875000 0.583333
vt 0.625000 0.166667
vt 0.625000 0.250000
vt 0.622518 0.752482
vt 0.622518 0.667494
vt 0.454713 0.750000
vt 0.625000 0.775418
vt 0.625000 0.974582
vt 0.617555 0.992555
vt 0.599582 1.000000
vt 0.534425 1.000000
vt 0.454713 1.000000
vt 0.375000 1.000000
vt 0.622518 0.582506
vt 0.599582 0.583333
vt 0.650418 0.500000
vt 0.650418 0.583333
vt 0.625000 0.000000
vt 0.625000 0.083333
vt 0.599582 0.083333
vt 0.599582 0.000000
vt 0.875000 0.666667
vt 0.875000 0.750000
vt 0.125000 0.500000
vt 0.375000 0.583333
vt 0.125000 0.583333
vt 0.534425 0.000000
vt 0.534425 0.083333
vt 0.534425 0.583333
vt 0.454713 0.083333
vt 0.534425 0.083333
vt 0.454713 0.083333
vt 0.454713 0.583333
vt 0.454713 0.666667
vt 0.454713 0.166667
vt 0.454713 0.166667
vt 0.454713 0.000000
vt 0.375000 0.166667
vt 0.375000 0.000000
vt 0.375000 0.083333
vt 0.454713 0.583333
vt 0.534425 0.583333
vt 0.534425 0.666667
vt 0.454713 0.666667
vt 0.534425 0.166667
vn 0.0000 1.0000 -0.0000
vn -0.0000 0.0000 -1.0000
vn 0.0000 0.0000 1.0000
vn 0.0000 -1.0000 0.0000
vn -1.0000 0.0000 0.0000
vn 0.0000 0.7746 0.6325
vn 0.0000 0.2056 0.9786
vn -0.0000 0.7746 -0.6325
vn -0.0000 0.2056 -0.9786
vn 1.0000 0.0000 -0.0000
usemtl Hedge_Green
s off
f 28/1/1 21/2/1 5/3/1 12/4/1
f 36/5/2 31/6/2 11/7/2 33/8/2
f 40/9/3 25/10/3 8/11/3 38/12/3
f 18/13/4 19/14/4 3/15/4 1/16/4
f 2/17/5 46/18/5 38/12/5 8/11/5 10/19/5 9/20/5 14/21/5 16/22/5 15/23/5 34/24/5 41/25/5 4/26/5
f 22/27/6 9/28/6 10/29/6 23/30/6
f 23/31/7 10/32/7 8/11/7 25/10/7
f 28/1/8 12/4/8 13/33/8 29/34/8
f 29/34/9 13/33/9 11/7/9 31/6/9
f 3/15/10 44/35/10 33/8/10 11/7/10 13/33/10 12/36/10 5/37/10 7/38/10 6/39/10 37/40/10 45/41/10 1/42/10
f 16/22/9 30/43/9 32/44/9 15/23/9
f 30/43/9 29/34/9 31/6/9 32/44/9
f 14/45/8 27/46/8 30/43/8 16/22/8
f 27/46/8 28/1/8 29/34/8 30/43/8
f 7/47/7 24/48/7 26/49/7 6/50/7
f 24/48/7 23/31/7 25/10/7 26/49/7
f 5/3/6 21/2/6 24/51/6 7/52/6
f 21/2/6 22/27/6 23/30/6 24/51/6
f 2/53/4 4/26/4 20/54/4 17/55/4
f 17/55/4 20/54/4 19/14/4 18/13/4
f 37/56/3 6/50/3 26/49/3 39/57/3
f 39/57/3 26/49/3 25/10/3 40/9/3
f 34/24/2 15/23/2 32/44/2 35/58/2
f 35/58/2 32/44/2 31/6/2 36/5/2
f 14/45/1 9/28/1 22/27/1 27/46/1
f 27/46/1 22/27/1 21/2/1 28/1/1
f 47/59/5 39/57/5 51/60/5 55/61/5
f 41/25/2 34/24/2 35/58/2 42/62/2
f 43/63/2 36/5/2 33/8/2 44/35/2
f 48/64/1 47/59/1 55/61/1 56/65/1
f 45/66/3 37/56/3 39/57/3 47/59/3
f 48/64/3 40/9/3 38/12/3 46/18/3
f 19/14/2 43/63/2 44/35/2 3/15/2
f 4/26/2 41/25/2 42/62/2 20/54/2
f 20/54/2 42/62/2 43/63/2 19/14/2
f 17/67/3 48/64/3 46/18/3 2/17/3
f 1/68/3 45/66/3 47/59/3 18/69/3
f 18/69/3 47/59/3 48/64/3 17/67/3
f 53/70/2 49/71/2 50/72/2 54/73/2
f 55/61/3 51/60/3 52/74/3 56/65/3
f 42/62/10 35/58/10 49/71/10 53/70/10
f 39/57/4 40/9/4 52/74/4 51/60/4
f 40/9/10 48/64/10 56/65/10 52/74/10
f 43/63/1 42/62/1 53/70/1 54/73/1
f 35/58/4 36/5/4 50/72/4 49/71/4
f 36/5/5 43/63/5 54/73/5 50/72/5
